<svg width="28" height="29" viewBox="0 0 28 29" xmlns="http://www.w3.org/2000/svg" xmlns:xlink="http://www.w3.org/1999/xlink">
    <path id="Pfad" fill="#a7a7a7" fill-rule="evenodd" stroke="none" d="M 28.232901 14.5459 C 28.225599 22.438499 21.9445 28.8696 14.2498 28.8627 C 6.50798 28.8559 0.18105 22.393 0.19644 14.507299 C 0.2119 6.587421 6.51213 0.19515 14.2875 0.21026 C 22.0172 0.2253 28.2402 6.622421 28.232901 14.5459 Z M 22.973 21.479401 C 22.9778 21.405399 22.9837 21.358601 22.983601 21.3118 C 22.9827 18.691099 22.999399 16.070299 22.966999 13.450001 C 22.959299 12.822899 22.849501 12.180199 22.681601 11.5753 C 22.197001 9.830799 20.9105 8.8638 19.2612 8.927 C 18.1887 8.9681 17.2155 9.3186 16.313101 9.896801 C 16.2234 9.954399 16.1322 10.0093 15.989799 10.0979 C 15.989799 9.669201 15.989799 9.3076 15.989799 8.9405 C 14.8146 8.9405 13.6716 8.9405 12.5242 8.9405 C 12.5242 13.1304 12.5242 17.2969 12.5242 21.4699 C 13.6851 21.4699 14.828699 21.4699 15.9979 21.4699 C 15.9979 21.3377 15.9979 21.2237 15.9979 21.1096 C 15.9979 18.7299 15.9923 16.3501 16.006201 13.9704 C 16.0077 13.723301 16.081499 13.4522 16.197599 13.2346 C 16.656401 12.375099 17.768801 11.937 18.6861 12.216801 C 19.0753 12.3356 19.3237 12.5993 19.4062 12.992901 C 19.466499 13.281601 19.483299 13.5844 19.483999 13.880901 C 19.489799 16.2992 19.487301 18.717501 19.487301 21.135799 C 19.487301 21.247499 19.487301 21.359301 19.487301 21.4793 C 20.667299 21.479401 21.8057 21.479401 22.973 21.479401 Z M 10.7434 21.4729 C 10.7434 17.285999 10.7434 13.120499 10.7434 8.9387 C 9.5579 8.9387 8.388 8.9387 7.20794 8.9387 C 7.20794 13.126099 7.20794 17.291901 7.20794 21.4729 C 8.3861 21.4729 9.5509 21.4729 10.7434 21.4729 Z M 7.47597 6.453659 C 7.4731 7.42514 8.1457 8.135799 9.07 8.1381 C 10.0171 8.140499 10.7609 7.400009 10.7571 6.45867 C 10.7535 5.56798 9.9438 4.77697 9.0365 4.77759 C 8.1823 4.77821 7.47868 5.533899 7.47597 6.453659 Z"/>
</svg>
