<?xml version="1.0" encoding="UTF-8"?>
<svg width="28" height="27" viewBox="0 0 28 27" xmlns="http://www.w3.org/2000/svg" xmlns:xlink="http://www.w3.org/1999/xlink">
    <path id="Pfad" fill="#a7a7a7" fill-rule="evenodd" stroke="none" d="M 16.629499 19.605101 C 17.3624 19.438101 18.071899 19.3162 18.7565 19.1129 C 21.032301 18.437099 22.303499 16.881399 22.688601 14.599899 C 22.8829 13.448799 22.9424 12.2931 22.5921 11.1527 C 22.3906 10.4967 22.0716 9.9011 21.618999 9.382301 C 21.482901 9.226299 21.4478 9.1 21.5103 8.896599 C 21.8381 7.828701 21.733999 6.77195 21.3557 5.737301 C 21.3179 5.633869 21.1318 5.501621 21.0336 5.51535 C 20.573999 5.579639 20.092899 5.62459 19.6721 5.799721 C 19.0044 6.07765 18.3825 6.46114 17.732 6.782009 C 17.592899 6.850559 17.402 6.89583 17.2568 6.86158 C 15.1422 6.362991 13.032 6.362991 10.9163 6.855721 C 10.7614 6.89183 10.548599 6.856491 10.4128 6.773949 C 9.5009 6.22003 8.58 5.69578 7.4996 5.528309 C 6.9154 5.43778 6.8529 5.470211 6.6922 6.02116 C 6.4062 7.001099 6.3554 7.984299 6.6564 8.9741 C 6.6846 9.066799 6.6614 9.216 6.6003 9.2876 C 5.3685 10.7311 5.1581 12.413101 5.4004 14.2043 C 5.5553 15.349501 5.8899 16.4277 6.6306 17.3484 C 7.5677 18.513201 8.8554 19.067101 10.2854 19.3615 C 10.684601 19.443701 11.0895 19.4991 11.531 19.5734 C 11.0716 20.0637 10.8414 20.620199 10.7227 21.2325 C 10.7054 21.321899 10.593901 21.4247 10.500999 21.4641 C 8.9793 22.1091 7.6129 21.676399 6.7281 20.2792 C 6.2712 19.5578 5.6678 19.027599 4.7908 18.876101 C 4.6247 18.847401 4.4418 18.8591 4.2757 18.8941 C 3.92529 18.9681 3.88052 19.149401 4.1386 19.4056 C 4.23 19.4963 4.3301 19.5849 4.4414 19.648899 C 5.132 20.045401 5.6261 20.6378 5.8684 21.357401 C 6.3997 22.934999 7.9658 23.614901 9.6425 23.4555 C 9.9644 23.4249 10.2848 23.378901 10.655701 23.333799 C 10.655701 24.218 10.678801 25.076 10.646601 25.9319 C 10.628599 26.410999 10.1689 26.630899 9.6389 26.453699 C 8.4465 26.0553 7.3225 25.513201 6.3037 24.784201 C 2.23914 21.8759 0.22542 17.927099 0.36346 12.9842 C 0.54097 6.62454 5.3239 1.223419 11.6667 0.097389 C 19.042 -1.211889 26.129902 3.63035 27.539501 10.9412 C 28.823502 17.5991 25.0301 24.172701 18.611401 26.413099 C 17.844601 26.6807 17.465 26.4139 17.4687 25.606701 C 17.4739 24.4785 17.4788 23.3501 17.488001 22.221901 C 17.4958 21.2533 17.337601 20.3384 16.629499 19.605101 Z"/>
</svg>
